<svg width="762" height="776" viewBox="0 0 762 776" fill="none" xmlns="http://www.w3.org/2000/svg">
<g clip-path="url(#clip0)">
<path opacity="0.1" d="M1041.77 337.52C1041.58 338.64 1041.39 339.76 1041.18 340.88C1034.4 379.02 1023.33 415.79 1006.87 449.55C1006.33 450.67 1005.78 451.79 1005.22 452.91C994.657 474.197 981.685 494.201 966.56 512.53C958.36 522.42 949.42 531.81 938.79 538.59C923.89 548.09 906.47 551.95 889.35 555.11C871.56 558.4 853.54 561.11 835.56 564.11C829.187 565.15 822.853 566.24 816.56 567.38C799.19 570.52 781.95 574.15 765.12 578.96C744.31 584.96 724.12 592.69 705.12 603.64C703.6 604.507 702.097 605.397 700.61 606.31C699.12 607.21 697.61 608.13 696.16 609.07C694.71 610.01 693.25 610.94 691.81 611.89L689.59 613.39C688.86 613.87 688.14 614.39 687.42 614.87C685.28 616.33 683.17 617.87 681.06 619.35L680.98 619.41C679.59 620.41 678.21 621.41 676.83 622.41C669.04 628.18 661.42 634.22 653.83 640.28L649.04 644.11C646.567 646.07 644.093 648.027 641.62 649.98C640.17 651.13 638.7 652.27 637.24 653.41C636.18 654.24 635.13 655.07 634.05 655.89C628.64 660.06 623.16 664.14 617.57 668.04C616.24 668.97 614.89 669.9 613.57 670.81C602.38 678.464 590.478 685.021 578.03 690.39L577.87 690.46C571.738 693.074 565.429 695.249 558.99 696.97C555.3 697.97 551.61 698.76 547.87 699.38C537.907 701.103 527.737 701.279 517.72 699.9C498.03 697.11 479.58 687.9 459.94 684.82C419.42 678.53 380.07 698.82 341.94 714.75C332.607 718.657 323.17 722.323 313.63 725.75C307.31 728.03 300.96 730.2 294.58 732.26C255.711 744.832 215.66 753.4 175.05 757.83C158.47 759.64 141.18 760.5 124.3 759.2C117.926 758.732 111.582 757.907 105.3 756.73C83.93 752.73 63.98 744.24 47.91 728.73C34.56 716.04 25.14 699.45 17.96 682.14C15.0733 675.187 12.53 668.073 10.33 660.8C6.872 649.401 4.27471 637.758 2.56 625.97C2.17 623.31 1.82 620.64 1.56 617.97C1.04 613.39 0.653326 608.79 0.399992 604.17C-1.00013 579.616 1.39811 554.993 7.50999 531.17C14.32 504.78 25.68 479.51 30.68 452.87C30.89 451.75 31.08 450.63 31.27 449.51C31.9367 445.51 32.4433 441.437 32.79 437.29C35.31 404.71 25.56 372.82 17.86 340.88C17.59 339.76 17.32 338.64 17.06 337.52C16.2267 333.98 15.4367 330.437 14.69 326.89C7.55999 293.11 5.60999 256.96 11.94 223.25C12.14 222.13 12.37 221 12.6 219.89C16.87 199.01 24.41 179.15 35.96 161.46C47.81 143.3 63.37 128.19 79.96 114.91C88.06 108.443 96.4367 102.393 105.09 96.76C111.31 92.72 117.643 88.8967 124.09 85.29C176.18 56.29 235.61 42.12 294.37 45.29C297.483 45.45 300.59 45.6633 303.69 45.93C306.943 46.21 310.187 46.5433 313.42 46.93C351.25 51.3 388.06 62.13 424.65 73.98C436.91 77.98 449.14 81.98 461.37 85.98C466.81 87.7533 472.247 89.5033 477.68 91.23C504.33 99.64 531.42 107.23 558.76 112.95C565.1 114.283 571.433 115.5 577.76 116.6C599.755 120.54 622.014 122.833 644.35 123.46C653.017 123.673 661.683 123.583 670.35 123.19C674.73 122.99 679.113 122.697 683.5 122.31C728.81 118.43 772.5 105.42 816.37 93.2C822.71 91.43 829.06 89.67 835.37 87.97C843.71 85.73 852.06 83.56 860.44 81.56C912.62 69.03 959.12 76.23 1007.63 102.07C1018.63 107.94 1029.63 115.02 1036.43 125.98C1043.23 136.94 1044.88 150.51 1046.14 163.57C1047.92 182.15 1049.14 200.99 1049.53 219.91C1049.53 221.03 1049.53 222.15 1049.6 223.27C1050.48 261.58 1048.15 300.18 1041.77 337.52Z" fill="white"/>
<path opacity="0.1" d="M695.68 449.55H692.27V451.04V452.91H696.13L695.68 449.55ZM657.03 449.55C657.025 449.576 657.025 449.604 657.03 449.63L656.73 452.41V452.66V452.91H686.33V452.71L688.44 449.55H657.03ZM577.88 449.55V340.88H611.88C611.52 340.58 611.15 340.28 610.77 340L610.27 339.62C610.06 339.45 609.85 339.29 609.63 339.14C609.41 338.99 608.89 338.61 608.5 338.35C608.11 338.09 607.87 337.92 607.5 337.71L607.27 337.56H607.22H577.88V331.61L577.09 331.99L576.25 332.46H576.19L576.01 332.57L575.49 332.91C575.31 333.02 575.13 333.13 574.96 333.25C574.44 333.6 573.96 333.98 573.41 334.37L572.91 334.77C572.57 335.03 572.25 335.3 571.91 335.57C570.58 336.66 569.27 337.8 567.91 338.85C567.57 339.12 567.23 339.38 566.91 339.63C566.183 340.162 565.429 340.656 564.65 341.11C564.327 341.311 563.993 341.495 563.65 341.66L563.09 341.92L562.58 342.14C561.379 342.647 560.134 343.042 558.86 343.32V449.55H507.86C507.86 449.67 507.93 449.78 507.96 449.9C508.24 450.9 508.52 451.9 508.79 452.9H558.87V569.39H559.65L560.54 569.45L562.16 569.57L564.78 569.83L565.96 569.97L567.26 570.13H567.45C568.2 570.23 568.96 570.35 569.73 570.47L570.22 570.55L571.32 570.73L572.9 571.01L576.69 570.81L577.21 570.92C577.42 570.92 577.63 571 577.85 571.05V452.91H656.66V452.66V452.41L656.96 449.63C656.955 449.604 656.955 449.576 656.96 449.55H577.88ZM695.68 449.55H692.27V451.04V452.91H696.13L695.68 449.55ZM654.9 449.55L654.56 452.91H687.49L689.73 449.55H654.9ZM577.9 449.55V340.88H611.9C611.54 340.58 611.17 340.28 610.79 340L610.29 339.62C610.08 339.45 609.87 339.29 609.65 339.14C609.43 338.99 608.91 338.61 608.52 338.35C608.13 338.09 607.89 337.92 607.52 337.71L607.29 337.56H607.22H577.88V331.61L577.09 331.99L576.25 332.46H576.19L576.01 332.57L575.49 332.91C575.31 333.02 575.13 333.13 574.96 333.25C574.44 333.6 573.96 333.98 573.41 334.37L572.91 334.77C572.57 335.03 572.25 335.3 571.91 335.57C570.58 336.66 569.27 337.8 567.91 338.85C567.57 339.12 567.23 339.38 566.91 339.63C566.183 340.162 565.429 340.656 564.65 341.11C564.327 341.311 563.993 341.495 563.65 341.66L563.09 341.92L562.58 342.14C561.379 342.647 560.134 343.042 558.86 343.32V449.55H507.86C507.86 449.67 507.93 449.78 507.96 449.9C508.24 450.9 508.53 451.9 508.8 452.9H558.87V569.38L559.65 569.43L560.54 569.49L562.16 569.61L564.78 569.87L565.96 570.01L567.26 570.17H567.45C568.2 570.27 568.96 570.39 569.73 570.51L570.22 570.59L571.32 570.77L572.9 571.05L576.69 570.85L577.21 570.96C577.42 570.96 577.63 571.04 577.85 571.09V452.91H654.56L654.92 449.55H577.9ZM835.56 223.25H1049.79C1049.79 222.13 1049.79 221.01 1049.72 219.89H835.56V87.95C829.2 89.65 822.85 91.41 816.56 93.18V219.89H583.56L582.97 219.25L583.86 218.25L670.52 123.14C661.853 123.54 653.187 123.63 644.52 123.41L577.88 196.51V116.58C571.52 115.48 565.187 114.263 558.88 112.93V192.83L461.45 85.96C449.22 81.96 436.99 77.89 424.73 73.96L557.16 219.25L556.57 219.89H313.5V46.89C310.26 46.5233 307.017 46.19 303.77 45.89C300.67 45.6167 297.563 45.4033 294.45 45.25V219.89H124.17V85.29C117.71 88.89 111.377 92.7133 105.17 96.76V219.89H12.56C12.33 221 12.1 222.13 11.9 223.25H105.09V337.52H17.06C17.32 338.64 17.59 339.76 17.86 340.88H105.13V449.55H31.24C31.05 450.67 30.86 451.79 30.65 452.91H105.13V756.76C111.412 757.937 117.756 758.762 124.13 759.23V452.91H294.45V732.29C300.837 730.217 307.187 728.047 313.5 725.78V452.91H558.84V697.01C565.279 695.289 571.588 693.114 577.72 690.5L577.88 690.43V452.91H816.5V567.38C822.827 566.24 829.16 565.15 835.5 564.11V452.91H1005.17C1005.73 451.79 1006.28 450.67 1006.82 449.55H835.56V340.88H1041.19C1041.4 339.76 1041.59 338.64 1041.78 337.52H835.56V223.25ZM124.18 223.25H294.45V337.52H124.17L124.18 223.25ZM124.18 449.55V340.88H294.45V449.55H124.18ZM313.51 223.25H558.84V337.52H313.5L313.51 223.25ZM313.51 449.55V340.88H558.84V449.55H313.51ZM816.51 449.55H577.88V340.88H816.5L816.51 449.55ZM816.51 337.55H577.88V226.31L581.23 223.25H816.5L816.51 337.55ZM657.04 449.55C657.035 449.576 657.035 449.604 657.04 449.63L656.74 452.41V452.66V452.91H686.34V452.71L688.45 449.55H657.04ZM695.69 449.55H692.28V451.04V452.91H696.14L695.69 449.55ZM577.89 449.55V340.88H611.89C611.53 340.58 611.16 340.28 610.78 340L610.28 339.62C610.07 339.45 609.86 339.29 609.64 339.14C609.42 338.99 608.9 338.61 608.51 338.35C608.12 338.09 607.88 337.92 607.51 337.71L607.28 337.56H607.23H577.88V331.61L577.09 331.99L576.25 332.46H576.19L576.01 332.57L575.49 332.91C575.31 333.02 575.13 333.13 574.96 333.25C574.44 333.6 573.96 333.98 573.41 334.37L572.91 334.77C572.57 335.03 572.25 335.3 571.91 335.57C570.58 336.66 569.27 337.8 567.91 338.85C567.57 339.12 567.23 339.38 566.91 339.63C566.183 340.162 565.429 340.656 564.65 341.11C564.327 341.311 563.993 341.495 563.65 341.66L563.09 341.92L562.58 342.14C561.379 342.647 560.134 343.042 558.86 343.32V449.55H507.86C507.86 449.67 507.93 449.78 507.96 449.9C508.24 450.9 508.52 451.9 508.79 452.9H558.87V569.39H559.65L560.54 569.45L562.16 569.57L564.78 569.83L565.96 569.97L567.26 570.13H567.45C568.2 570.23 568.96 570.35 569.73 570.47L570.22 570.55L571.32 570.73L572.9 571.01L576.69 570.81L577.21 570.92C577.42 570.92 577.63 571 577.85 571.05V452.91H656.66V452.66V452.41L656.96 449.63C656.955 449.604 656.955 449.576 656.96 449.55H577.89Z" fill="white"/>
<path opacity="0.1" d="M206.04 144.57H207.56C207.04 144.269 206.602 143.844 206.287 143.333C205.971 142.821 205.786 142.24 205.75 141.64C205.75 139.32 208.59 137.43 212.06 137.43H256.21C259.68 137.43 262.52 139.32 262.52 141.64C262.52 143.95 259.68 145.85 256.21 145.85H254.74C255.258 146.153 255.693 146.579 256.007 147.09C256.321 147.601 256.504 148.181 256.54 148.78C256.54 150.78 254.48 152.42 251.72 152.87H264.43C267.89 152.87 270.73 154.76 270.73 157.08C270.73 159.4 267.89 161.28 264.43 161.28H220.23C216.77 161.28 213.93 159.39 213.93 157.08C213.93 155.08 215.99 153.44 218.75 152.99H206.04C202.58 152.99 199.74 151.1 199.74 148.78C199.74 146.46 202.56 144.57 206.04 144.57Z" fill="white"/>
<path opacity="0.1" d="M684.56 184.64H686.04C685.519 184.337 685.081 183.911 684.765 183.398C684.45 182.885 684.266 182.301 684.23 181.7C684.23 179.39 687.07 177.5 690.54 177.5H734.69C738.16 177.5 741 179.39 741 181.7C741 184.02 738.16 185.91 734.69 185.91H733.22C733.738 186.215 734.174 186.642 734.488 187.155C734.802 187.668 734.985 188.25 735.02 188.85C735.02 190.85 732.96 192.48 730.2 192.93H742.91C746.37 192.93 749.21 194.83 749.21 197.14C749.21 199.45 746.37 201.35 742.91 201.35H698.77C695.31 201.35 692.47 199.46 692.47 197.14C692.47 195.14 694.53 193.5 697.29 193.06H684.56C681.1 193.06 678.26 191.16 678.26 188.85C678.26 186.54 681.12 184.64 684.56 184.64Z" fill="white"/>
<path opacity="0.1" d="M138.31 356.11H139.79C139.272 355.805 138.836 355.378 138.522 354.865C138.208 354.352 138.025 353.77 137.99 353.17C137.99 350.86 140.82 348.96 144.29 348.96H188.44C191.91 348.96 194.75 350.86 194.75 353.17C194.75 355.49 191.91 357.38 188.44 357.38H186.97C187.488 357.685 187.924 358.112 188.238 358.625C188.552 359.138 188.735 359.72 188.77 360.32C188.77 362.32 186.71 363.95 183.95 364.4H196.66C200.13 364.4 202.96 366.29 202.96 368.61C202.96 370.93 200.13 372.82 196.66 372.82H152.5C149.04 372.82 146.2 370.92 146.2 368.61C146.2 366.61 148.27 364.97 151.02 364.52H138.31C134.85 364.52 132.01 362.63 132.01 360.32C132.01 358.01 134.85 356.11 138.31 356.11Z" fill="white"/>
<path d="M760.2 461.99L761.32 427.44C760.65 426.92 759.97 426.44 759.32 425.96C759.596 415.659 759.008 405.353 757.56 395.15C753.04 360.6 723.69 359.85 715.41 366.98C714.313 367.927 713.116 368.752 711.84 369.44C712.59 364.51 713.52 359.57 714.19 354.69C717.81 328.37 712.19 298.76 691.77 281.75C683.22 274.64 672.77 270.27 663.38 264.32C646.56 253.71 633.27 238.04 616.26 227.71C599.25 217.38 575.36 213.51 560.52 226.79C554.77 231.93 551.06 239.06 545.16 244.02C534.16 253.26 517.01 253.87 507.41 264.19C506.93 264.71 506.47 265.24 506.03 265.8C498.03 276.06 500.22 290.61 502.77 303.34C505.84 318.66 504.57 330.94 517.71 335.34C517.76 335.95 517.8 336.56 517.87 337.16C518.939 346.558 522.049 355.609 526.982 363.679C531.916 371.749 538.553 378.644 546.43 383.88L544.3 384.64C538.62 386.64 533.51 388.58 530.24 389.91C518.24 394.8 492.98 401.17 492.98 401.17C492.98 401.17 492.38 408.37 492.49 418.99C484.07 428.14 470.02 444.22 465.89 453.75C459.89 467.65 425.99 507.46 416.96 513.47C407.93 519.48 398.14 526.61 398.14 526.61C398.14 526.61 383.84 534.5 377.07 535.25C372.38 535.77 357.87 532.99 357.87 532.99C357.87 532.99 299.92 461.99 303.68 516.47C307.44 570.95 353.73 572.8 353.73 572.8L400.4 572.05C400.4 572.05 425.62 575.43 436.91 566.05C446.55 558.05 496.51 514.16 512.56 494.25C512.93 494.66 513.3 495.06 513.69 495.45C513.69 495.45 520.08 487.19 520.84 495.45C521.6 503.71 516.69 507.45 519.33 510.45C521.97 513.45 529.87 523.97 530.24 528.1C530.61 532.23 519.71 549.1 538.14 561.9C538.43 562.1 538.74 562.29 539.08 562.48C542.37 569.97 552.83 577.3 552.83 577.3L609.28 576.55L715.79 584.81C715.79 584.81 718.96 582.02 723.25 577.46C728.98 582.72 736.93 587.23 745.89 584.46C745.89 584.46 758.69 569.07 759.07 558.93C759.07 558.93 750.79 537.52 747.07 531.14C743.35 524.76 749.71 510.86 749.71 510.86C749.71 510.86 754.22 497.34 756.86 497.34C759.5 497.34 757.61 488.34 757.61 488.34C756.612 486.869 755.987 485.177 755.791 483.41C755.594 481.643 755.83 479.855 756.48 478.2C758.69 472.51 760.2 461.99 760.2 461.99Z" fill="url(#paint0_linear)"/>
<path d="M696.35 454.21L692.35 458.89L676.19 477.71L655.08 478.99L621.29 481.07C621.29 481.07 575.73 426.17 584.29 414.22C587.4 409.91 587.91 404.22 587.29 398.85C587.21 398.11 587.1 397.37 586.97 396.64C585.946 390.958 584.156 385.441 581.65 380.24L582.77 379.73L583.49 379.4L623.33 361.22L633.19 356.72C633.681 359.438 634.592 362.062 635.89 364.5C636.08 364.88 636.29 365.26 636.51 365.62C650.1 388.12 693.68 373.89 693.68 373.89L696.35 454.21Z" fill="#EE8E9E"/>
<path d="M755.26 426.12C754.96 439.74 752.74 445.62 752.74 445.62L696.35 454.21L694.24 439.57L685.89 381.76L693.73 373.92C696.862 374.596 700.108 374.543 703.216 373.766C706.325 372.989 709.214 371.509 711.66 369.44C719.87 362.34 749 363.09 753.48 397.44C754.796 406.941 755.391 416.529 755.26 426.12Z" fill="#EE8E9E"/>
<path d="M741.91 585.65C741.91 585.65 754.6 570.34 754.98 560.26L742.28 538.97L731.08 526.97L710.16 567.35C710.16 567.35 723.98 591.25 741.91 585.65Z" fill="#DFE5EE"/>
<path opacity="0.1" d="M741.91 585.65C741.91 585.65 754.6 570.34 754.98 560.26L742.28 538.97L731.08 526.97L710.16 567.35C710.16 567.35 723.98 591.25 741.91 585.65Z" fill="black"/>
<path d="M637.12 653.45C636.06 654.28 635.01 655.11 633.93 655.93C628.52 660.1 623.04 664.18 617.45 668.08C616.12 669.01 614.77 669.94 613.45 670.85H558.84H313.5H294.45L200.07 667.47L124.17 666.83L105.17 665.83L10.37 660.83C6.89702 649.422 4.28634 637.769 2.56 625.97C2.17 623.31 1.82 620.64 1.56 617.97L105.13 623.71L124.13 624.78L294.41 634.28L313.46 635.34L558.8 649.04L577.68 650.1H577.84L637.12 653.45Z" fill="#D48A9B"/>
<path d="M765.06 578.96C744.25 584.96 724.06 592.69 705.06 603.64C703.55 604.51 702.06 605.4 700.55 606.31C699.04 607.22 697.55 608.13 696.1 609.07C694.65 610.01 693.19 610.94 691.75 611.89L689.53 613.39L687.36 614.87C685.22 616.34 683.11 617.87 681 619.35L680.92 619.41C679.53 620.41 678.15 621.41 676.77 622.41C668.98 628.18 661.36 634.22 653.77 640.28C652.17 641.56 650.567 642.837 648.96 644.11L641.56 649.98C640.11 651.13 638.64 652.27 637.18 653.41C636.12 654.24 635.07 655.07 633.99 655.89L577.99 653.22H577.83L558.95 652.34L313.5 640.71L294.45 639.8L124.17 631.71L105.17 630.8L2.56 625.97C2.17 623.31 1.82 620.64 1.56 617.97C1.04 613.39 0.653329 608.79 0.399996 604.17L105.16 567.17L124.16 560.44L141.42 554.34L172.87 555.98L245.56 559.71L294.48 562.28L313.53 563.28L325.7 563.92L328.61 564.08L431.03 569.43L432.11 569.5L477.81 571.88H478.33H478.63L483.2 572.11L498.78 572.93L518.26 573.93L524.68 574.27L525.89 574.34L534.97 574.81L537.56 574.94L546.23 575.4L549.68 575.59H549.79H550.51L558.62 576.02L571.18 576.68H571.24L575.14 576.88H575.56L577.89 577.01L583.61 577.31L588.61 577.57H588.66L594.27 577.86H594.36L598.61 578.09L601.87 578.26L613.44 578.87L615.52 578.98H616.24L617.24 579.04L620.63 579.22L622.15 579.3L633.95 579.91H635.03L652.45 579.76H652.57L718.8 579.22H720.07H721.41H725.35L746.67 579.05H749.85L765.06 578.96Z" fill="#EFC6CD"/>
<path d="M318.07 580.33L324.23 613.1L491.71 610.58C491.71 610.58 504.31 614.22 504.03 604.14C504.03 604.14 529.52 580.05 658.63 608.06L609.06 569.13L473.56 576.41L316.44 572.21L318.07 580.33Z" fill="white"/>
<path d="M321.15 572.49L327.03 608.06C327.03 608.06 471.03 603.86 493.67 607.78L476.56 575.29C476.56 575.29 389.49 567.17 321.15 572.49Z" fill="white"/>
<path opacity="0.1" d="M321.15 572.49L327.03 608.06C327.03 608.06 471.03 603.86 493.67 607.78L476.56 575.29C476.56 575.29 389.49 567.17 321.15 572.49Z" fill="black"/>
<path d="M323.3 572.36L329.1 605.44C329.1 605.44 471.27 601.54 493.67 605.18L476.8 574.97C476.8 574.97 390.78 567.41 323.3 572.36Z" fill="white"/>
<path opacity="0.1" d="M325.91 573.38L331.56 604.32C331.56 604.32 470.61 600.67 492.56 604.08L476.06 575.81C476.06 575.81 391.92 568.71 325.91 573.38Z" fill="black"/>
<path d="M327.03 572.25L332.71 603.25C332.71 603.25 471.76 599.6 493.71 603.01L477.17 574.71C477.17 574.71 393.04 567.62 327.03 572.25Z" fill="white"/>
<path d="M228.65 488.12C228.65 488.12 235.93 497.63 225.3 512C214.67 526.37 205.89 538.49 209.44 547.45C209.44 547.45 225.44 520.77 238.54 520.45C251.64 520.13 243.02 504.16 228.65 488.12Z" fill="white"/>
<path opacity="0.1" d="M228.65 488.12C229.29 489.042 229.792 490.053 230.14 491.12C242.88 506.12 249.67 520.12 237.42 520.42C226.01 520.74 212.33 541.14 209.05 546.3C209.163 546.687 209.293 547.077 209.44 547.47C209.44 547.47 225.44 520.79 238.54 520.47C251.64 520.15 243.02 504.16 228.65 488.12Z" fill="black"/>
<path d="M242.18 500.25C242.18 503.59 241.8 506.31 241.34 506.31C240.88 506.31 240.5 503.59 240.5 500.25C240.5 496.91 240.97 498.47 241.43 498.47C241.89 498.47 242.18 496.9 242.18 500.25Z" fill="#FFD037"/>
<path d="M246.82 504.24C243.88 505.85 241.32 506.82 241.1 506.41C240.88 506 243.1 504.41 246.02 502.77C248.94 501.13 247.8 502.33 248.02 502.77C248.24 503.21 249.76 502.64 246.82 504.24Z" fill="#FFD037"/>
<path d="M190.22 488.12C190.22 488.12 182.94 497.63 193.58 512C204.22 526.37 212.98 538.49 209.44 547.45C209.44 547.45 193.39 520.77 180.33 520.45C167.27 520.13 175.85 504.16 190.22 488.12Z" fill="white"/>
<path opacity="0.1" d="M190.22 488.12C189.586 489.045 189.084 490.055 188.73 491.12C175.99 506.12 169.2 520.12 181.45 520.42C192.86 520.74 206.55 541.14 209.83 546.3C209.723 546.687 209.593 547.077 209.44 547.47C209.44 547.47 193.39 520.79 180.33 520.47C167.27 520.15 175.85 504.16 190.22 488.12Z" fill="black"/>
<path d="M176.69 500.25C176.69 503.59 177.07 506.31 177.53 506.31C177.99 506.31 178.37 503.59 178.37 500.25C178.37 496.91 177.9 498.47 177.44 498.47C176.98 498.47 176.69 496.9 176.69 500.25Z" fill="#FFD037"/>
<path d="M172.05 504.24C174.99 505.85 177.56 506.82 177.78 506.41C178 506 175.78 504.41 172.86 502.77C169.94 501.13 171.08 502.33 170.86 502.77C170.64 503.21 169.11 502.64 172.05 504.24Z" fill="#FFD037"/>
<path d="M248.56 534.62L248.2 537.62L247.69 541.81L247.48 543.56L246.97 547.76L246.75 549.51L246.23 553.71L240.41 601.43C239.89 605.69 232.93 609.01 224.53 609.01H194.31C185.91 609.01 178.96 605.69 178.44 601.43L172.61 553.71L172.1 549.51L171.89 547.76L171.37 543.56L171.16 541.81L170.65 537.62L170.28 534.62C169.99 532.21 173.75 530.18 178.51 530.18H240.37C245.12 530.18 248.89 532.21 248.56 534.62Z" fill="#65617D"/>
<path d="M248.23 537.59L247.72 541.79H171.16L170.65 537.59H248.23Z" fill="#9D9CB5"/>
<path d="M247.51 543.54L247 547.74H171.89L171.37 543.54H247.51Z" fill="#9D9CB5"/>
<path d="M246.78 549.49L246.27 553.68H172.61L172.1 549.49H246.78Z" fill="#9D9CB5"/>
<path d="M340.85 530.76C340.85 530.76 321.43 512.09 322.18 536.36C322.93 560.63 340.85 530.76 340.85 530.76Z" fill="#EE8E9E"/>
<path d="M515.24 488.19C514.81 490.07 512.72 493.19 509.46 497.1C492.62 517.38 444.71 559.53 435.32 567.35C424.12 576.69 399.1 573.35 399.1 573.35L352.8 574.1C352.8 574.1 306.87 572.23 303.13 518.1C299.39 463.97 356.9 534.53 356.9 534.53C356.9 534.53 371.3 537.29 375.95 536.77C382.67 536.03 396.86 528.19 396.86 528.19C396.86 528.19 406.57 521.09 415.53 515.12C424.49 509.15 458.1 469.56 464.08 455.74C467.87 446.97 480.08 432.63 488.51 423.33C493.35 417.98 496.94 414.33 496.94 414.33C496.94 414.33 517.85 476.61 515.24 488.19Z" fill="#EE8E9E"/>
<path opacity="0.1" d="M515.24 488.19C514.81 490.07 512.72 493.19 509.46 497.1C492.46 479.79 488.91 445.25 488.51 423.29C493.35 417.94 496.94 414.29 496.94 414.29C496.94 414.29 517.85 476.61 515.24 488.19Z" fill="black"/>
<path opacity="0.1" d="M692.34 458.89L676.19 477.71L655.08 478.99L621.29 481.07C621.29 481.07 575.73 426.17 584.29 414.22C587.4 409.91 587.91 404.22 587.29 398.85C587.21 398.11 587.1 397.37 586.97 396.64C585.946 390.958 584.156 385.441 581.65 380.24L582.77 379.73L583.49 379.4C585.268 384.354 586.496 389.488 587.15 394.71C587.26 395.42 587.36 396.16 587.46 396.92C587.81 399.62 588.13 402.62 588.46 405.92C591.06 436.14 610.07 447.51 618.65 451.13C621.409 452.294 624.106 453.599 626.73 455.04C634.985 459.592 644.504 461.313 653.83 459.94C675.01 457.16 692.28 441.77 692.28 441.77L692.37 456.92L692.34 458.89Z" fill="black"/>
<path d="M692.99 576.32C692.99 576.32 554.08 575.94 535.77 563.25C517.46 550.56 528.31 533.75 527.93 529.64C527.55 525.53 519.72 515.08 517.11 512.08C514.5 509.08 519.35 505.36 518.6 497.15C517.85 488.94 511.51 497.15 511.51 497.15C485.36 470.63 490.96 403.42 490.96 403.42C490.96 403.42 515.96 397.08 527.96 392.21C531.21 390.89 536.27 389.01 541.96 386.98L544.07 386.22C558.74 380.97 576.18 375.04 576.18 375.04C576.18 375.04 579.53 372.67 582.9 379.76C584.44 383.02 585.99 388.27 587.23 396.66C587.34 397.37 587.44 398.11 587.54 398.87C587.89 401.57 588.21 404.57 588.54 407.87C591.14 438.09 610.15 449.46 618.73 453.08C621.489 454.244 624.186 455.549 626.81 456.99C635.065 461.542 644.584 463.264 653.91 461.89C675.09 459.11 692.36 443.72 692.36 443.72L692.45 458.87L692.71 504.39L692.99 576.32Z" fill="#DFE5EE"/>
<path d="M687.01 517.32L684.77 531.51C684.77 531.51 629.5 545.32 607.85 549.43C586.2 553.54 539.51 548.31 536.15 557.27C532.79 566.23 550.34 578.56 550.34 578.56L606.34 577.81L712.02 586.03C712.02 586.03 752.35 550.55 739.28 525.9C726.21 501.25 687.01 517.32 687.01 517.32Z" fill="#EE8E9E"/>
<path opacity="0.1" d="M573.12 405.29C573.12 405.29 547.72 426.2 552.58 436.29C557.44 446.38 573.12 405.29 573.12 405.29Z" fill="black"/>
<path opacity="0.1" d="M541.75 443C541.75 443 515.98 487.44 517.48 490.8C518.98 494.16 526.07 506.11 525.69 497.15C525.31 488.19 541.75 443 541.75 443Z" fill="black"/>
<path opacity="0.1" d="M552.21 450.85C552.21 450.85 546.21 478.48 540.26 490.06C534.31 501.64 552.21 450.85 552.21 450.85Z" fill="black"/>
<path opacity="0.1" d="M636.56 365.65C631.622 374.705 624.588 382.445 616.046 388.225C607.503 394.004 597.702 397.654 587.46 398.87H587.34C571.229 400.762 554.997 396.513 541.88 386.97C556.88 381.55 576.1 375.03 576.1 375.03C576.1 375.03 579.45 372.66 582.82 379.75L633.24 356.75C633.806 359.891 634.931 362.905 636.56 365.65Z" fill="black"/>
<path d="M644.44 332.47C644.459 343.716 641.528 354.77 635.94 364.53C633.271 369.184 630.036 373.49 626.31 377.35C615.914 388.173 602.062 395.022 587.15 396.71H587.02C584.636 396.983 582.239 397.12 579.84 397.12C563.967 397.12 548.65 391.277 536.811 380.705C524.971 370.133 517.439 355.572 515.65 339.8C515.372 337.38 515.235 334.946 515.24 332.51C515.24 315.377 522.046 298.946 534.161 286.831C546.276 274.716 562.707 267.91 579.84 267.91C596.973 267.91 613.404 274.716 625.519 286.831C637.634 298.946 644.44 315.377 644.44 332.51V332.47Z" fill="#EE8E9E"/>
<path opacity="0.1" d="M686.27 454.71L692.27 445.71C692.27 445.71 725.13 406.5 757.27 431.52L756.15 465.88C756.15 465.88 754.65 476.33 752.41 481.88C751.767 483.527 751.532 485.305 751.727 487.063C751.923 488.82 752.541 490.504 753.53 491.97C753.53 491.97 755.4 500.97 752.79 500.97C750.18 500.97 745.69 514.41 745.69 514.41C745.69 514.41 739.34 528.23 743.08 534.58C746.82 540.93 755.03 562.21 755.03 562.21C755.03 562.21 741.96 554.37 738.22 541.3C738.22 541.3 706.48 516.65 681.83 532.3L686.27 454.71Z" fill="black"/>
<path opacity="0.1" d="M755.26 426.12C754.96 439.74 752.74 445.62 752.74 445.62L696.35 454.21L694.24 439.57C701.62 431.87 728.46 407.39 755.26 426.12Z" fill="black"/>
<path d="M686.27 452.71L692.27 443.71C692.27 443.71 725.13 404.5 757.27 429.52L756.15 463.88C756.15 463.88 754.65 474.33 752.41 479.88C751.767 481.527 751.532 483.305 751.727 485.063C751.923 486.82 752.541 488.504 753.53 489.97C753.53 489.97 755.4 498.97 752.79 498.97C750.18 498.97 745.69 512.41 745.69 512.41C745.69 512.41 739.34 526.23 743.08 532.58C746.82 538.93 755.03 560.21 755.03 560.21C755.03 560.21 741.96 552.37 738.22 539.3C738.22 539.3 706.48 514.65 681.83 530.3L686.27 452.71Z" fill="#DFE5EE"/>
<path opacity="0.1" d="M739.29 427.32C739.29 427.32 685.15 460.56 687.76 489.71C687.76 489.71 718.01 436.28 739.29 427.32Z" fill="black"/>
<path opacity="0.1" d="M692.33 458.9L692.59 504.42C682.35 504.88 672.7 503.55 665.07 496.92C659.76 492.3 656.67 485.92 655.07 479.02C653.88 473.46 653.442 467.766 653.77 462.09C653.765 462.033 653.765 461.977 653.77 461.92C654.4 449.35 657.29 436.78 655.77 424.29C654.25 411.8 646.68 398.62 634.32 395.99C631.88 395.46 629.14 395.27 627.4 393.48C625.48 391.48 625.57 388.37 625.78 385.6L626.14 380.93C626.23 379.73 626.27 378.54 626.27 377.35C626.263 366.733 622.57 356.448 615.821 348.251C609.073 340.055 599.688 334.456 589.27 332.41L588.87 332.34C585.39 331.64 581.77 330.95 578.29 331.75C571.67 333.28 567.39 339.7 561.29 342.75C549.59 348.59 530.08 342.2 517.83 340.19C517.03 340.06 516.27 339.91 515.54 339.74C515.262 337.32 515.125 334.886 515.13 332.45C515.135 322.556 517.412 312.794 521.786 303.919C526.161 295.044 532.515 287.293 540.36 281.263C548.205 275.233 557.33 271.085 567.031 269.14C576.732 267.195 586.751 267.504 596.314 270.045C605.877 272.585 614.728 277.287 622.186 283.79C629.643 290.293 635.508 298.422 639.326 307.55C643.144 316.678 644.815 326.561 644.209 336.437C643.603 346.313 640.736 355.917 635.83 364.51C636.02 364.89 636.23 365.27 636.45 365.63C650.04 388.13 693.62 373.9 693.62 373.9L696.24 454.19L692.33 458.9Z" fill="black"/>
<path d="M563.64 341.64C569.7 338.58 573.98 332.16 580.64 330.64C584.11 329.84 587.73 330.53 591.23 331.22L591.63 331.3C602.645 333.48 612.477 339.623 619.265 348.568C626.053 357.512 629.325 368.635 628.46 379.83L628.1 384.5C627.88 387.26 627.79 390.39 629.73 392.37C631.46 394.16 634.2 394.37 636.64 394.87C649 397.51 656.57 410.62 658.09 423.18C659.61 435.74 656.67 448.35 656.09 460.97C655.51 473.59 657.83 487.52 667.37 495.81C682.37 508.81 705.17 501.41 725.02 500.22C716.24 500.22 709.66 491.16 709.18 482.4C708.7 473.64 712.6 465.3 716.33 457.4C720.06 449.5 723.8 441 722.97 432.26C721.83 420.26 712.37 410.65 708.75 399.1C704.53 385.66 708.6 371.23 710.51 357.26C714.1 331.1 708.51 301.65 688.26 284.74C679.78 277.67 669.41 273.32 660.09 267.4C643.39 256.81 630.22 241.28 613.34 230.98C596.46 220.68 572.76 216.86 558.03 230.06C552.33 235.17 548.65 242.26 542.79 247.19C531.34 256.84 513.14 257.02 503.96 268.86C496.06 279.05 498.2 293.52 500.73 306.17C504.1 323.04 502.2 336.17 520.23 339.17C532.43 341.1 551.93 347.49 563.64 341.64Z" fill="#603556"/>
<path opacity="0.1" d="M712.2 492.16C697.75 493.93 683.43 494.84 672.91 485.72C663.37 477.43 661.02 463.51 661.63 450.88C662.24 438.25 665.16 425.63 663.63 413.08C662.1 400.53 654.54 387.42 642.18 384.78C639.74 384.26 637.01 384.07 635.27 382.28C633.34 380.28 633.42 377.16 633.64 374.4L634 369.73C634.864 358.536 631.593 347.414 624.805 338.472C618.017 329.529 608.184 323.387 597.17 321.21L596.77 321.13C593.27 320.44 589.65 319.75 586.18 320.55C579.56 322.08 575.28 328.55 569.18 331.55C557.47 337.4 537.98 331.01 525.71 329C507.71 326.05 509.59 312.9 506.21 296C504.32 286.56 502.65 276.1 505.21 267.16C504.73 267.67 504.27 268.16 503.83 268.77C495.93 278.96 498.07 293.43 500.6 306.08C503.97 322.95 502.07 336.08 520.1 339.08C532.36 341.08 551.86 347.48 563.57 341.63C569.63 338.57 573.91 332.15 580.57 330.63C584.04 329.83 587.66 330.52 591.16 331.21L591.56 331.29C602.575 333.469 612.407 339.613 619.195 348.558C625.983 357.502 629.255 368.625 628.39 379.82L628.03 384.49C627.81 387.25 627.72 390.38 629.66 392.36C631.39 394.15 634.13 394.36 636.57 394.86C648.93 397.5 656.5 410.61 658.02 423.17C659.54 435.73 656.61 448.34 656.02 460.96C655.43 473.58 657.76 487.51 667.3 495.8C682.3 508.8 705.1 501.4 724.95 500.21C719.56 500.24 715.03 496.82 712.2 492.16Z" fill="black"/>
<path d="M306.36 525.52L368.01 502.52C369.467 501.976 371.081 502.033 372.497 502.678C373.913 503.323 375.014 504.503 375.56 505.96C376.104 507.417 376.047 509.031 375.402 510.447C374.757 511.863 373.577 512.964 372.12 513.51L310.47 536.51L297.25 535.19L306.36 525.52Z" fill="#5C5C8E"/>
<path opacity="0.1" d="M373.7 504.08C374.244 505.539 374.186 507.154 373.539 508.569C372.892 509.985 371.709 511.086 370.25 511.63L308.56 534.71L298.64 533.71L297.21 535.23L310.43 536.55L372.08 513.55C373.537 513.004 374.717 511.903 375.362 510.487C376.007 509.071 376.064 507.457 375.52 506C375.066 504.785 374.222 503.755 373.12 503.07C373.342 503.389 373.536 503.727 373.7 504.08Z" fill="white"/>
<path d="M306.37 525.52L310.47 536.51L299.63 535.42L297.26 535.18L300.5 531.74L306.37 525.52Z" fill="#EFC8C4"/>
<path d="M300.49 531.71C300.743 531.9 300.96 532.133 301.13 532.4C301.231 532.56 301.285 532.746 301.285 532.935C301.285 533.124 301.231 533.31 301.13 533.47C300.96 533.646 300.76 533.792 300.54 533.9C300.292 534.066 300.085 534.284 299.933 534.54C299.78 534.797 299.687 535.083 299.66 535.38L297.28 535.15L300.49 531.71Z" fill="#727A9C"/>
<path d="M499.93 595.71C499.93 595.71 553.33 584.5 642.93 598.71L607.83 572.95L543.97 559.88L498.79 571.88L499.93 595.71Z" fill="white"/>
<path opacity="0.1" d="M499.93 595.71C499.93 595.71 553.33 584.5 642.93 598.71L607.83 572.95L543.97 559.88L498.79 571.88L499.93 595.71Z" fill="black"/>
<path d="M493.67 607.83C493.67 607.83 520.56 535.09 658.67 608.06L609.1 576.16C609.1 576.16 490.35 543.35 476.63 581.16L493.67 607.83Z" fill="white"/>
<path opacity="0.1" d="M493.67 607.78C493.67 607.78 520.56 530.01 658.67 609.18L609.1 574.58C609.1 574.58 490.31 535.34 476.56 576.41L493.67 607.78Z" fill="black"/>
<path d="M493.67 607.81C493.67 607.81 520.56 528.89 658.67 608.06L609.1 573.46C609.1 573.46 490.35 535.34 476.63 576.46L493.67 607.81Z" fill="white"/>
<path opacity="0.1" d="M493.67 607.83C493.67 607.83 520.56 520.12 658.67 609.18L609.06 570.25C609.06 570.25 490.31 530.25 476.59 576.41L493.67 607.83Z" fill="black"/>
<path d="M493.67 607.78C493.67 607.78 520.56 519 658.67 608.06L609.06 569.13C609.06 569.13 490.31 529.13 476.59 575.29L493.67 607.78Z" fill="white"/>
<path opacity="0.1" d="M635.83 34C635.83 34 569.29 53 601.64 81.28C601.64 81.28 604.51 87.28 613.72 87.28C613.72 87.28 612 84.96 619.12 83.55C621.571 83.057 623.974 82.3475 626.3 81.43C629.043 80.4687 631.377 78.6033 632.92 76.14C632.92 76.14 646.92 64.94 637.73 42.36C637.73 42.36 639.4 36.2 638.28 35.14L629.96 41.96C629.96 41.96 637.96 46.07 638.63 51.5C638.63 51.5 630.56 42.01 628.63 42.94C628.24 43.13 624.47 46.69 624.47 46.69C624.47 46.69 638.35 53.87 638.98 62.28C638.98 62.28 631.58 50.17 622.98 48.04L617.78 53.66C617.78 53.66 632.98 60.79 634.23 70.35C634.23 70.35 625.85 57.86 616.77 54.95L612.77 60.95C612.77 60.95 627.41 68.09 628.37 76.05C628.37 76.05 616.54 62.2 612 62.37C612 62.37 608.87 68.07 609.15 69.88C609.15 69.88 619.49 75.16 619.44 79.8C619.44 79.8 610.1 71.06 608.56 71.52C608.56 71.52 607.5 79.75 610.28 84.21C610.28 84.21 605.46 77.8 606.62 71.42C606.62 71.42 601.33 74.07 600 77.8C600 77.8 597.42 73.11 606.92 69.43C606.92 69.43 608.13 63.05 609.24 62.31C609.24 62.31 599.04 65.03 594.57 68.81C594.57 68.81 596.45 62.93 610.21 60.69L613.99 54.57C613.99 54.57 600.19 57.69 595.81 60.84C595.81 60.84 599.14 55.08 615.14 53.08L620.14 47.53C620.14 47.53 607.9 49.6 601.84 52.38C601.84 52.38 606.69 47.53 621.66 45.98L625.66 42.56C625.66 42.56 616.77 44.18 614.29 44.8C611.81 45.42 611.29 45.02 611.29 45.02C616.287 42.6002 621.74 41.2644 627.29 41.1C627.29 41.1 636.41 34.42 635.83 34Z" fill="white"/>
<path opacity="0.1" d="M505.41 -12.76C505.41 -12.76 511.12 35.48 543.56 23.84C543.56 23.84 549.67 23.89 551.39 18.05C551.39 18.05 548.89 18.41 548.87 13.45C548.847 11.6856 548.615 9.93006 548.18 8.22001C547.604 5.90644 546.287 3.84485 544.43 2.35001C544.43 2.35001 536.47 -10.07 513.56 -11.29C513.56 -11.29 508.08 -14.29 506.88 -13.91L511.77 -6.47999C511.77 -6.47999 517.08 -10.28 522.3 -8.97999C522.3 -8.97999 511.92 -6.83999 512.45 -5.33999C512.55 -5.02999 515.21 -1.52 515.21 -1.52C515.21 -1.52 524.56 -8.12 532.56 -5.87C532.56 -5.87 519.85 -4.98999 516.29 -0.219994L520.56 4.86001C520.56 4.86001 530.02 -2.55999 539.23 -0.349991C539.23 -0.349991 525.97 1.05001 521.58 5.90001L526.56 10.32C526.56 10.32 535.92 3.26 543.56 5.16C543.56 5.16 528.4 8.32001 527.74 11.25C527.74 11.25 532.51 15.03 534.27 15.43C534.27 15.43 541.11 10.52 545.45 12.02C545.45 12.02 535.55 15.2 535.7 16.32C535.7 16.32 543.23 19.58 547.92 19.22C547.92 19.22 541.03 20.22 535.25 17.52C535.25 17.52 536.77 21.71 540.04 23.74C540.04 23.74 535.16 23.89 533.43 16.74C533.43 16.74 527.67 13.96 527.18 13.03C527.18 13.03 527.88 20.36 530.61 24.39C530.61 24.39 525.43 21.39 525.83 11.9L520.83 7.57001C520.83 7.57001 521.24 17.32 523.4 21.1C523.4 21.1 518.6 17.17 519.64 6.38L515.35 1.45C515.35 1.45 515.06 9.87 516.56 14.59C516.56 14.59 512.89 9.99001 514.17 -0.00999451L511.68 -3.63999C511.68 -3.63999 511.59 2.51001 511.68 4.29001C511.77 6.07001 511.34 6.24001 511.34 6.24001C510.026 2.57594 509.756 -1.38134 510.56 -5.18999C510.56 -5.18999 505.91 -13 505.41 -12.76Z" fill="white"/>
<path opacity="0.1" d="M747.87 666.01C747.87 666.01 701.05 653.01 699.55 687.45C699.55 687.45 697.19 693.09 701.94 696.89C701.94 696.89 702.55 694.45 707.15 696.3C708.791 696.949 710.503 697.402 712.25 697.65C714.613 697.99 717.022 697.548 719.11 696.39C719.11 696.39 733.61 693.73 743.45 673.05C743.45 673.05 748.3 669.12 748.45 667.86L739.72 669.57C739.72 669.57 741.22 675.93 738.04 680.27C738.04 680.27 740.04 669.85 738.41 669.77C738.08 669.77 733.82 670.88 733.82 670.88C733.82 670.88 736.38 681.94 731.27 688.49C731.27 688.49 735.27 676.39 732.2 671.29L725.86 673.38C725.86 673.38 729.14 684.94 723.6 692.62C723.6 692.62 727.34 679.83 724.5 673.93L718.56 676.82C718.56 676.82 721.56 688.16 716.89 694.52C716.89 694.52 719.71 679.3 717.24 677.57C717.24 677.57 711.94 680.57 710.91 682.03C710.91 682.03 712.91 690.22 709.83 693.67C709.83 693.67 710.63 683.3 709.54 683.02C709.54 683.02 703.66 688.75 702.22 693.23C702.22 693.23 703.87 686.46 708.6 682.15C708.6 682.15 704.14 681.97 701.03 684.22C701.03 684.22 702.73 679.65 710.03 680.78C710.03 680.78 714.79 676.49 715.84 676.4C715.84 676.4 708.84 674.26 704.02 675.26C704.02 675.26 708.8 671.62 717.39 675.58L723.31 672.58C723.31 672.58 714.13 669.27 709.82 669.84C709.82 669.84 715.27 666.84 724.82 671.93L731 669.82C731 669.82 723.32 666.37 718.38 665.97C718.38 665.97 724.03 664.32 732.8 669.29L737.1 668.36C737.1 668.36 731.44 665.94 729.75 665.36C728.06 664.78 728.07 664.36 728.07 664.36C731.943 664.537 735.692 665.783 738.9 667.96C738.9 667.96 747.9 666.56 747.87 666.01Z" fill="white"/>
</g>
<defs>
<linearGradient id="paint0_linear" x1="532.41" y1="585.28" x2="532.41" y2="218.27" gradientUnits="userSpaceOnUse">
<stop stop-color="#808080" stop-opacity="0.25"/>
<stop offset="0.54" stop-color="#808080" stop-opacity="0.12"/>
<stop offset="1" stop-color="#808080" stop-opacity="0.1"/>
</linearGradient>
<clipPath id="clip0">
<rect width="1059.13" height="789.41" fill="white" transform="translate(0 -14)"/>
</clipPath>
</defs>
</svg>
